<svg width="112" height="130" viewBox="0 0 112 130" fill="none" xmlns="http://www.w3.org/2000/svg">
<rect width="60" height="60" rx="30" fill="#C6D2AE"/>
<g clip-path="url(#clip0_0_108)">
<path fill-rule="evenodd" clip-rule="evenodd" d="M25.5867 20.6667C24.7167 20.6665 23.8622 20.8971 23.1104 21.3349C22.3585 21.7726 21.7362 22.4019 21.3068 23.1586C20.8775 23.9152 20.6564 24.7722 20.6662 25.6422C20.676 26.5121 20.9164 27.3639 21.3627 28.1107C22.6115 27.2717 24.0822 26.8246 25.5867 26.8267C27.1493 26.8267 28.604 27.3 29.8107 28.1107C30.2676 27.3482 30.5082 26.4756 30.5067 25.5867C30.5077 24.9388 30.3802 24.2973 30.1317 23.699C29.8832 23.1008 29.5184 22.5577 29.0587 22.1013C28.6028 21.6456 28.0614 21.2842 27.4656 21.0381C26.8698 20.7919 26.2313 20.6657 25.5867 20.6667ZM28.1107 30.1893C27.3482 29.7324 26.4756 29.4918 25.5867 29.4933C24.9388 29.4923 24.2973 29.6198 23.699 29.8683C23.1008 30.1169 22.5577 30.4816 22.1013 30.9413C21.2547 31.7909 20.7476 32.9204 20.6752 34.1175C20.6029 35.3147 20.9703 36.497 21.7084 37.4423C22.4465 38.3876 23.5045 39.0307 24.6835 39.2508C25.8625 39.4709 27.0812 39.2527 28.1107 38.6373C27.2717 37.3886 26.8246 35.9178 26.8267 34.4133C26.8267 32.8507 27.3 31.396 28.1107 30.1893ZM30 40.5853C28.5386 41.6319 26.7531 42.1256 24.9617 41.9784C23.1702 41.8312 21.4892 41.0528 20.2182 39.7818C18.9472 38.5108 18.1688 36.8298 18.0216 35.0383C17.8744 33.2469 18.3681 31.4614 19.4147 30C18.3681 28.5386 17.8744 26.7531 18.0216 24.9617C18.1688 23.1702 18.9472 21.4892 20.2182 20.2182C21.4892 18.9472 23.1702 18.1688 24.9617 18.0216C26.7531 17.8744 28.5386 18.3681 30 19.4147C31.4614 18.3681 33.2469 17.8744 35.0383 18.0216C36.8298 18.1688 38.5108 18.9472 39.7818 20.2182C41.0528 21.4892 41.8312 23.1702 41.9784 24.9617C42.1256 26.7531 41.6319 28.5386 40.5853 30C41.6319 31.4614 42.1256 33.2469 41.9784 35.0383C41.8312 36.8298 41.0528 38.5108 39.7818 39.7818C38.5108 41.0528 36.8298 41.8312 35.0383 41.9784C33.2469 42.1256 31.4614 41.6319 30 40.5853ZM38.6373 31.8893C37.3886 32.7284 35.9178 33.1755 34.4133 33.1733C32.9089 33.1754 31.4381 32.7283 30.1893 31.8893C29.7324 32.6518 29.4918 33.5244 29.4933 34.4133C29.4933 35.776 30.0453 37.0067 30.9413 37.8987C31.7909 38.7453 32.9204 39.2524 34.1175 39.3248C35.3147 39.3971 36.497 39.0297 37.4423 38.2916C38.3876 37.5535 39.0307 36.4955 39.2508 35.3165C39.4709 34.1375 39.2527 32.9188 38.6373 31.8893ZM31.8893 29.8107C32.6518 30.2676 33.5244 30.5082 34.4133 30.5067C35.0612 30.5077 35.7028 30.3802 36.301 30.1317C36.8993 29.8832 37.4423 29.5184 37.8987 29.0587C38.7453 28.2092 39.2524 27.0797 39.3248 25.8825C39.3971 24.6854 39.0297 23.503 38.2916 22.5577C37.5535 21.6124 36.4955 20.9693 35.3165 20.7492C34.1375 20.5291 32.9188 20.7473 31.8893 21.3627C32.7 22.5693 33.1733 24.024 33.1733 25.5867C33.1754 27.0911 32.7283 28.5619 31.8893 29.8107Z" fill="#7E7E7E"/>
</g>
<rect x="52" y="70" width="60" height="60" rx="30" fill="#004A30"/>
<g clip-path="url(#clip1_0_108)">
<path fill-rule="evenodd" clip-rule="evenodd" d="M72.2827 108.188C70.2333 105.935 69.6733 103.084 69.9227 100.537C70.1973 97.728 71.4787 95.0333 73.1467 93.6427C75.376 91.7853 77.7173 91.0227 79.7493 90.6493C80.7388 90.4795 81.7354 90.3536 82.736 90.272C83.2747 90.2213 83.82 90.1707 84.344 90.04C85.448 89.764 86.5373 89.316 87.4347 88.604C87.8453 88.2773 88.2613 87.9467 88.8147 88.008C89.0136 88.0301 89.2049 88.0967 89.3746 88.2029C89.5442 88.3091 89.6878 88.4521 89.7947 88.6213C94.0613 95.3773 93.4173 102.549 89.8533 107.067C88.0733 109.321 85.5733 110.895 82.6573 111.36C80.1133 111.764 77.3333 111.312 74.532 109.845C74.2859 110.61 74.1031 111.394 73.9853 112.189C73.9353 112.539 73.7482 112.855 73.4653 113.067C73.1824 113.28 72.8267 113.371 72.4767 113.321C72.1266 113.271 71.8107 113.084 71.5985 112.801C71.3864 112.518 71.2953 112.162 71.3453 111.812C71.5107 110.659 71.8253 109.431 72.2827 108.188ZM80.2293 93.272C81.168 93.1 82.0493 93.0173 82.9053 92.9333C83.604 92.8667 84.308 92.7973 84.9907 92.6267C86.1405 92.3455 87.2417 91.8933 88.2573 91.2853C91.1613 96.7747 90.3507 102.131 87.76 105.416C86.3627 107.187 84.4413 108.376 82.24 108.725C80.2627 109.04 77.9733 108.693 75.5333 107.357C77.016 104.335 79.44 101.437 82.596 99.86C82.9125 99.7019 83.1532 99.4246 83.2652 99.089C83.3773 98.7535 83.3514 98.3872 83.1933 98.0707C83.0353 97.7542 82.7579 97.5134 82.4224 97.4014C82.0868 97.2894 81.7205 97.3153 81.404 97.4733C77.9267 99.212 75.2627 102.219 73.5307 105.425C72.676 104.025 72.42 102.397 72.5773 100.796C72.8027 98.492 73.8573 96.5227 74.8533 95.6907C76.624 94.2147 78.4907 93.592 80.2307 93.272H80.2293Z" fill="white"/>
</g>
<defs>
<clipPath id="clip0_0_108">
<rect x="14" y="14" width="32" height="32" rx="10" fill="white"/>
</clipPath>
<clipPath id="clip1_0_108">
<rect width="32" height="32" fill="white" transform="translate(66 84)"/>
</clipPath>
</defs>
</svg>
